<svg width="31" height="30" viewBox="0 0 31 30" fill="none" xmlns="http://www.w3.org/2000/svg">
<path d="M25.8007 29.9959H20.6505C20.309 29.9959 19.9815 29.8603 19.74 29.6188C19.4985 29.3773 19.3629 29.0498 19.3629 28.7083C19.3629 28.3668 19.4985 28.0393 19.74 27.7979C19.9815 27.5564 20.309 27.4208 20.6505 27.4208H25.8007C26.3105 27.4651 26.8177 27.3115 27.2173 26.9919C27.6168 26.6722 27.878 26.2111 27.9467 25.704V4.296C27.878 3.78895 27.6168 3.32778 27.2173 3.00814C26.8177 2.6885 26.3105 2.53491 25.8007 2.57924H20.6505C20.309 2.57924 19.9815 2.44358 19.74 2.20211C19.4985 1.96065 19.3629 1.63315 19.3629 1.29167C19.3629 0.950181 19.4985 0.622682 19.74 0.381216C19.9815 0.139749 20.309 0.0040948 20.6505 0.0040948H25.8007C26.396 -0.0212273 26.9905 0.0710841 27.5501 0.275747C28.1097 0.480409 28.6234 0.793405 29.0619 1.19683C29.5004 1.60025 29.8551 2.08617 30.1056 2.6268C30.3561 3.16743 30.4975 3.75215 30.5218 4.3475V25.6525C30.4975 26.2478 30.3561 26.8326 30.1056 27.3732C29.8551 27.9138 29.5004 28.3997 29.0619 28.8032C28.6234 29.2066 28.1097 29.5196 27.5501 29.7243C26.9905 29.9289 26.396 30.0212 25.8007 29.9959Z" fill="white"/>
<path d="M13.7834 23.1289C13.6142 23.1297 13.4466 23.0967 13.2904 23.0318C13.1341 22.9669 12.9924 22.8715 12.8735 22.7512C12.6324 22.5098 12.497 22.1825 12.497 21.8413C12.497 21.5001 12.6324 21.1728 12.8735 20.9314L18.8307 14.9742L12.8735 9.01709C12.6461 8.77301 12.5223 8.45018 12.5282 8.11661C12.534 7.78304 12.6692 7.46478 12.9051 7.22887C13.141 6.99297 13.4592 6.85784 13.7928 6.85195C14.1264 6.84607 14.4492 6.96989 14.6933 7.19732L21.5603 14.0644C21.8015 14.3058 21.9369 14.633 21.9369 14.9742C21.9369 15.3155 21.8015 15.6427 21.5603 15.8841L14.6933 22.7512C14.5744 22.8715 14.4327 22.9669 14.2765 23.0318C14.1202 23.0967 13.9526 23.1297 13.7834 23.1289Z" fill="white"/>
<path d="M20.6505 16.2618H1.76609C1.4246 16.2618 1.0971 16.1262 0.855636 15.8847C0.61417 15.6432 0.478516 15.3157 0.478516 14.9742C0.478516 14.6328 0.61417 14.3053 0.855636 14.0638C1.0971 13.8223 1.4246 13.6867 1.76609 13.6867H20.6505C20.9919 13.6867 21.3189 13.8229 21.5603 14.0644C21.8015 14.3058 21.9369 14.633 21.9369 14.9742C21.9369 15.3155 21.8015 15.6427 21.5603 15.8841C21.3189 16.1256 20.9919 16.2618 20.6505 16.2618Z" fill="white"/>
</svg>
